<?xml version="1.0" encoding="UTF-8"?><svg id="Layer_1" xmlns="http://www.w3.org/2000/svg" viewBox="0 690 1010 145"><defs><style>.cls-1{fill:#fcfcfc;}</style></defs><path class="cls-1" d="M116.09,766.43c-1.52,4.6-3.73,8.86-6.77,12.72-1.87,2.36-4.5,3.06-6.97,4.12-8.6,3.71-17.48,6.65-26.5,9.14-.6.16-1.19.54-1.8-.3-2.97-4.08-6.03-8.1-9.21-12.36,2.26-.17,4.29-.26,6.3-.49,9.3-1.06,17.38-4.42,22.8-12.5,8.97-13.36,1-31.27-14.95-33.7-2.12-.32-4.24-.4-6.38-.4-10.21,0-20.41-.02-30.62.04-1.29,0-2.11-.39-2.92-1.37-3.84-4.68-7.74-9.31-11.61-13.96-.17-.2-.46-.37-.34-.8h54.22c.1,0,.2,0,.3.01,13.52.96,24.43,6.51,31.4,18.44,5.79,9.91,6.62,20.5,3.04,31.38Z"/><path class="cls-1" d="M64.86,758.93c-3.95,9.01-7.84,17.9-11.75,26.79-1.62,3.67-3.29,7.32-4.88,11.01-.34.78-.76,1.14-1.63,1.23-6.09,6.64-12.19,6.75-18.3,6.36-1.24-.08-1.38-.38-.92-1.5,5-11.98,9.96-23.98,14.93-35.97.29-.69.57-1.38.86-2.06.55-1.31,1.51-1.96,2.95-1.95,2.77.02,5.54-.13,8.3.03,2.46.15,4.76,1.3,7.24,1.54,1.02.1,2.03.33,3.19.52Z"/><path class="cls-1" d="M16.61,768.93c-2.97,3.59-6.03,7.12-7.92,11.46-.74,1.7-1.3,3.45-1.49,5.3-.52,5.07,1.37,8.71,5.83,11.18,4.45,2.46,9.32,3.27,14.29,3.72,11.73,1.06,23.27-.43,34.72-2.74,18.87-3.8,36.98-9.89,54.09-18.74,7.81-4.04,15.23-8.73,21.44-15.04,3.73-3.8,6.99-7.98,8.06-13.42.18-.9.28-1.83.3-2.74.07-2.56.05-2.56-2.39-3.15-1.53-.37-2.63-1.65-2.65-3.22-.02-1.66.72-2.89,2.29-3.53,1.49-.6,3.09-.11,4.11,1.31.94,1.3,1.13,2.83.02,3.98-1.02,1.07-.9,2.05-.68,3.27,1.08,6.08-1.13,11.24-4.74,15.91-3.69,4.76-8.18,8.65-13.11,12.14-17.19,12.18-36.57,19.32-56.67,24.79-10.51,2.86-21.21,4.88-32.11,5.67-8.55.62-17.05.7-25.38-1.73-1.27-.37-2.52-.84-3.73-1.38-7.51-3.38-10.09-9.69-7.1-17.36,2.14-5.5,5.83-9.9,10.12-13.82.78-.71,1.24-2.05,2.69-1.86h0Z"/><path class="cls-1" d="M128.71,828.73c-12.44,1.48-23.35-1.79-32.58-10.35-5.01-4.64-9.23-9.97-13.37-15.37-.58-.76-.4-1.08.31-1.6,4.15-3.02,8.59-5.52,13.23-7.7,1.19-.56,1.42.24,1.87.82,4.37,5.72,8.77,11.42,13.45,16.9,4.96,5.8,10.25,11.24,16.1,16.15.38.32.88.56.99,1.15Z"/><path class="cls-1" d="M42.29,830.01c2.03-2.12,3.76-3.93,5.59-5.85-1.8-.85-3.32-1.09-4.79.56-.99,1.11-2.38,1.86-3.34,2.99-1.75,2.05-3.89,2.45-6.45,2.35-4.42-.17-8.85-.05-13.33-.24,21.84-14.47,45.05-26.14,69.99-34.7-.05.64-.47.74-.76.9-13.95,7.56-24.38,18.56-31.75,32.54-.55,1.03-1.12,1.51-2.36,1.48-4.08-.09-8.17-.03-12.79-.03ZM57.99,815.25c-.93-.17-1.72-.73-2.33-.3-2.12,1.47-4.13,3.09-6.19,4.65.06.17.11.34.17.51.97-.45,1.83.76,2.76-.02,1.83-1.52,3.6-3.11,5.58-4.83ZM59.82,812.06c3.12.94,4.16-2.27,6.33-3.23-2.79-.28-4.2,2.19-6.33,3.23ZM68.31,806.66c1.69.24,2.53-1.14,3.71-1.89-1.54.02-2.54,1.12-3.71,1.89ZM74.02,803.28c1.38.22,2.09-.8,2.96-1.52-1.18.15-2.13.72-2.96,1.52Z"/><path class="cls-1" d="M728.2,774.67c-5.41,13.88-7.74,15.58-21.19,15.64-12.81.06-25.61.19-38.42-.03-3.88-.07-5.68.62-5.29,4.97.39,4.38.41,8.85,0,13.23-.42,4.43,1.55,4.98,5.33,4.95,20.09-.16,40.19.08,60.28-.18,4.66-.06,6.41,1.19,5.66,5.84-.31,1.94-.27,3.99-.02,5.95.45,3.61-1.05,4.39-4.48,4.37-26.27-.13-52.55-.14-78.82.06-3.99.03-4.75-1.36-4.73-4.95.13-28.04.14-56.08.02-84.12-.01-3.48,1-4.51,4.48-4.49,26.27.13,52.55.13,78.82,0,3.99-.02,4.39.97,2.92,4.52-3.44,8.32-7.47,11.31-16.52,11.32-15.68.02-31.36.16-47.03-.06-4.56-.06-5.99,1.27-5.96,5.95.08,16.99-.1,17,16.6,17.01,16.04.01,32.09,0,48.35,0Z"/><path class="cls-1" d="M62.26,803.91c-16.35,7.25-32.11,15.59-47.59,24.76,1.09-2.76,2.18-5.51,3.28-8.27,1.51-3.8,3.02-7.59,4.55-11.38.29-.72.47-1.39,1.63-1.33,12.46.62,24.75-.72,36.89-3.54.41-.1.84-.16,1.25-.23Z"/><path class="cls-1" d="M535.85,829.4c-9.92,0-18.76-.15-27.58.07-3.82.1-5.46-.67-5.38-5.03.28-16.33.23-32.67.08-49.01-.03-3.35.74-4.5,4.32-4.62,13.7-.44,13.69-.59,13.69,13.09,0,8.17.13,16.34-.08,24.51-.09,3.54.72,5.06,4.68,4.96,11.47-.28,22.97.12,34.44-.21,18.28-.53,30.86-13.06,30.83-30.25-.03-18.28-12.67-30.81-31.47-30.98-14.35-.13-28.7-.05-43.05-.03-6.36,0-11.23-2.45-13.44-8.63-1.3-3.62-.54-7.11,4.09-7.06,22.23.25,44.69-2.83,66.63,1.97,22.64,4.95,36.77,24.98,34.97,47.2-1.95,24-17.88,40.6-41.38,43.3-10.8,1.24-21.62.35-31.33.72Z"/><path class="cls-1" d="M351.27,780.29c9.94,0,19.88.26,29.81-.07,10.6-.35,15.57-5.4,15.43-14.83-.12-8.59-5.67-13.38-16.07-13.45-16.78-.12-33.56-.04-50.35-.02-6.37,0-11.26-2.56-13.51-8.64-1.38-3.73-.93-7.16,4.43-7.16,22.06.02,44.15-1.29,66.19.49,15.36,1.24,28.56,15,27.1,32.21-1.29,15.21-13.5,27.14-30.21,27.65-14.34.45-28.71.45-43.05.07-5.24-.14-6.28,1.56-6.04,6.31.38,7.49-.03,15.01.14,22.52.07,3.14-.93,4.08-4.13,4.21-13.95.58-13.94.7-13.93-12.9.01-10.6.16-21.2-.05-31.8-.07-3.49.93-4.57,4.45-4.49,9.93.22,19.87.08,29.81.08,0-.06,0-.11,0-.17Z"/><path class="cls-1" d="M280.43,829.32h-70.24c3.45-5.28,6.56-10.15,9.8-14.92,1.2-1.76,3.24-1.05,4.93-1.07,7.07-.08,14.14-.14,21.21-.04,3.53.05,4.5-.92,2.48-4.16-8.4-13.48-16.72-27-25.05-40.52-3.14-5.11-4.03-.29-5.03,1.33-10.54,17.07-21.19,34.08-31.22,51.45-3.56,6.16-7.66,9.06-14.75,7.96-3.17-.49-6.47-.08-9.71-.08-.35-2.54,1.27-3.96,2.26-5.6,16.53-27.38,33.1-54.73,49.66-82.1,4.18-6.91,8.57-7.46,12.37-1.25,17.61,28.78,35.09,57.63,52.6,86.46.31.51.34,1.2.69,2.54Z"/><path class="cls-1" d="M1000,829.13h-65.02c3.07-5,5.9-9.51,8.62-14.08,1.16-1.95,2.98-1.56,4.69-1.56,5.97-.01,11.94-.13,17.9.08,4.99.17,5.16-1.69,2.9-5.38-8.05-13.13-16-26.33-24.31-40.02-6.82,10.87-13.56,21.47-20.14,32.17-4.71,7.65-9.44,15.31-13.7,23.22-2.43,4.51-5.44,6.42-10.56,5.73-3.45-.46-7-.09-11.07-.09,1.95-5.9,5.74-10.46,8.68-15.42,14.37-24.22,28.94-48.32,43.36-72.51,2-3.35,3.22-5.16,6.03-.45,16.97,28.42,34.14,56.71,51.21,85.06.53.88.83,1.9,1.4,3.25Z"/><path class="cls-1" d="M872.19,828.28c-.21-.23-10.87,1.6-12.41,1.46-4.04-.39-7.89-1.76-11.34-3.9-5.6-3.49-9.95-8.64-14.16-13.64-4.12-4.9-8.67-9.29-12.88-14.1-2.65-3.02-4.05-3.36-6.93-.09-7.59,8.61-15.88,16.6-23.42,25.25-3.98,4.57-8.21,6.83-14.31,6.13-4.11-.47-8.31-.09-13.89-.09,3.9-4.25,7.19-7.88,10.54-11.46,23.5-25.15,47.12-50.18,70.41-75.51,4.22-4.59,8.36-7.23,14.74-6.41,4.11.53,8.34.1,12.88.1-.62,2.93-3.07,4.29-4.73,6.1-11.02,12.06-22.03,24.14-33.34,35.93-3.28,3.42-3.48,5.36-.02,8.93,13.2,13.6,26,27.58,38.85,41.31Z"/><path class="cls-1" d="M66.44,749.56c1.46.17,2.35,1.37,3.56,2.01,1.11.59,1.48.48,1.64-.79.43-3.6.95-7.2,1.71-10.81.44,3.15.88,6.31,1.32,9.46.08.57.14,1.14.22,1.71.12.91.53,1.04,1.27.52,1.16-.81,2.34-1.57,3.87-2.58-.52,1.53-1.3,2.38-1.92,3.31-1.06,1.57-.98,1.78.93,2.11,2.89.5,5.84.68,8.88,1.49-3.2.85-6.34,1.11-9.44,1.55-1.37.19-1.61.55-.76,1.67.86,1.12,1.62,2.3,2.17,3.7-1.08-.72-2.17-1.43-3.24-2.17-1.37-.94-1.67-.83-1.9.84-.47,3.48-.92,6.96-1.69,10.44-.48-3.5-.98-7-1.42-10.51-.23-1.83-.27-1.87-1.72-.86-1.12.78-2.25,1.56-3.76,2.59.77-1.78,1.78-2.86,2.63-4.03.79-1.07.62-1.57-.78-1.73-3.14-.36-6.29-.74-9.4-1.68,2.94-.43,5.88-.89,8.83-1.27,2.05-.27,2.1-.34.88-2.09-.66-.94-1.26-1.92-1.88-2.89l-.02.02Z"/><path class="cls-1" d="M448.04,782.22c0-13.92.12-27.85-.08-41.76-.05-3.69.96-4.96,4.75-4.92,8.09.08,13.08,4.1,13.16,12.41.24,25.85.08,51.71.12,77.56,0,2.3-.41,3.49-3.14,3.85-13.76,1.82-14.85.98-14.85-12.66,0-11.49,0-22.98,0-34.47h.04Z"/><path class="cls-1" d="M763.08,736.61c1.3-.5,1.48-.6,1.67-.63,8.51-1.51,17.34-.57,24.67,4.26,7.34,4.84,12.9,13.22,18.76,19.68,2.49,2.74,2.63,5.32-.13,7.89-7.87,7.32-7.68,7.52-15.43-.52-9.68-10.05-19.36-20.1-29.55-30.67Z"/><path class="cls-1" d="M124.46,702.93q1.14,5.85,6.86,6.61c-1.43.36-2.52.7-3.64.89-1.59.26-2.38,1.14-2.64,2.71-.17,1.02-.25,2.09-.76,2.93-.23-.57-.37-1.27-.46-1.99-.26-2.14-1.23-3.61-3.6-3.85-.54-.06-1.33.14-1.72-.75,1.65-.2,3.6-.16,4.46-1.65.84-1.44,1.02-3.27,1.48-4.9Z"/><path class="cls-1" d="M6.78,733.09c.11,3.21,1.41,5.11,4.95,5.22-3.44.17-4.79,2.07-4.95,5.23-.21-3.09-1.33-5.13-4.92-5.17,3.64-.06,4.72-2.17,4.92-5.27Z"/><path class="cls-1" d="M81.9,705.09c-.35-2.96-1.38-5.06-4.93-5.05,3.22-.27,4.75-1.87,4.73-5.12.44,2.91,1.37,5.16,4.98,5-3.28.26-4.88,1.83-4.78,5.16Z"/><path class="cls-1" d="M79.04,725.87c-.15-1.25-.58-2.14-2.08-2.13,1.36-.11,2-.79,1.99-2.16.19,1.23.58,2.18,2.1,2.11-1.38.11-2.06.77-2.01,2.18Z"/><path class="cls-1" d="M92.04,729.03c-.07-.59-.28-1.02-.99-1.01.65-.05.95-.38.95-1.03.09.58.28,1.04,1,1-.66.05-.98.37-.96,1.04Z"/><path class="cls-1" d="M103.12,742.49c-.1-.88-.41-1.5-1.46-1.49.95-.08,1.4-.55,1.4-1.51.13.86.41,1.53,1.47,1.48-.97.08-1.44.54-1.41,1.53Z"/><path class="cls-1" d="M104.56,759.8c-.1-.88-.41-1.5-1.46-1.49.95-.08,1.4-.55,1.4-1.51.13.86.41,1.53,1.47,1.48-.97.08-1.44.54-1.41,1.53Z"/><path class="cls-1" d="M128.15,731.69c.36.65.49,1.48,1.65,1.43-.91.3-1.47.75-1.56,1.71-.21-.84-.59-1.43-1.54-1.59.72-.34,1.46-.58,1.45-1.55Z"/><path class="cls-1" d="M126.6,784.09c.36.65.49,1.48,1.65,1.43-.91.3-1.47.75-1.56,1.71-.21-.84-.59-1.43-1.54-1.59.72-.34,1.46-.58,1.45-1.55Z"/><path class="cls-1" d="M15.73,707.96c.26.82.64,1.33,1.55,1.39-.75.43-1.63.64-1.41,1.82-.39-.79-.53-1.59-1.58-1.67.69-.37,1.4-.62,1.45-1.54Z"/><path class="cls-1" d="M1.45,762.51c.26.82.64,1.33,1.55,1.39-.75.43-1.63.64-1.41,1.82-.39-.79-.53-1.59-1.58-1.67.69-.37,1.4-.62,1.45-1.54Z"/><path class="cls-1" d="M25.55,747.86c.26.82.64,1.33,1.55,1.39-.75.43-1.63.64-1.41,1.82-.39-.79-.53-1.59-1.58-1.67.69-.37,1.4-.62,1.45-1.54Z"/><path class="cls-1" d="M52.9,702.97c-.37.34-.65.81-.94.81-.43,0-.89-.51-.82-.9.05-.29.37-.95.93-.76.32.11.53.53.82.85Z"/><path class="cls-1" d="M16.61,768.92c.01-.09.03-.17.04-.26.06.03.12.07.19.1-.07.06-.15.11-.22.17,0,0,0,0,0,0Z"/><polygon class="cls-1" points="66.46 749.55 66.4 749.46 66.44 749.56 66.46 749.55"/></svg>